<mxfile host="app.diagrams.net" modified="2023-12-03T16:37:36.564Z" agent="Mozilla/5.0 (Macintosh; Intel Mac OS X 10_15_7) AppleWebKit/537.36 (KHTML, like Gecko) Chrome/118.0.0.0 Safari/537.36" version="22.1.5" etag="k1VavVH9xn6DygHiGp3e" type="github">
  <diagram name="Page-1" id="V_OIsb3dV8PI7ekmCIi9">
    <mxGraphModel>
      <root>
        <mxCell id="0" />
        <mxCell id="1" parent="0" />
      </root>
    </mxGraphModel>
  </diagram>
</mxfile>
